<svg width="2329" height="2329" viewBox="0 0 2329 2329" fill="none" xmlns="http://www.w3.org/2000/svg">
<path fill-rule="evenodd" clip-rule="evenodd" d="M2122.13 1560.62C1964.7 1878.08 1283.47 2151.34 606.505 1857.94C217.125 1689.18 69.834 1282.53 62.1215 1094.43C56.0564 946.517 166.329 788.812 232.9 721.054C374.405 577.026 1129.6 397.633 1302.1 406.847C1545.62 400.014 1697.54 611.359 1889.21 621.437C2025.5 628.602 2433.61 932.484 2122.13 1560.62Z" fill="#F3F1EF"/>
<path fill-rule="evenodd" clip-rule="evenodd" d="M1173.2 1071.54C1172.41 1083.34 1173.37 1095.26 1176.06 1106.78C1177.19 1111.63 1184.48 1112.53 1188.27 1109.29C1192.06 1106.04 1193.07 1100.65 1193.48 1095.68C1194.08 1088.33 1193.89 1080.91 1192.9 1073.61C1192.39 1069.83 1191.61 1065.93 1189.33 1062.88C1187.05 1059.82 1182.89 1057.87 1179.33 1059.23C1174.8 1060.97 1173.52 1066.69 1173.2 1071.54Z" fill="white"/>
<path fill-rule="evenodd" clip-rule="evenodd" d="M599.896 781.904C641.502 761.3 691.186 757.608 735.379 771.838C746.483 750.504 762.839 731.928 782.596 718.212C786.408 715.566 791.863 713.177 795.293 716.302C793.911 738.226 792.529 760.215 793.825 782.143C794.834 799.213 797.463 816.185 797.703 833.282C798.398 882.697 779.025 930.559 752.672 972.366C815.941 1014.92 863.638 1080.11 885.048 1153.29C876.095 1157.91 641.807 1166.05 515.078 1155.92C512.143 1157.91 509.397 1153.1 509.062 1149.58C505.67 1113.87 503.766 1077.52 511.174 1042.43C518.582 1007.33 536.286 973.225 565.533 952.466C538.39 893.37 548.946 820.872 515.833 764.903C513.866 761.579 512.211 756.395 515.653 754.646C516.93 753.997 518.455 754.198 519.867 754.437C542.956 758.354 564.957 768.509 582.917 783.538C587.55 787.415 594.483 784.585 599.896 781.904Z" fill="white"/>
<path fill-rule="evenodd" clip-rule="evenodd" d="M1497.69 1149.67C1497.53 1149.67 1521.74 1113.37 1536.59 1096.48C1550.15 1081.06 1558.1 1060.8 1558.65 1040.28C1511.77 1038.42 1465.12 1030.68 1420.15 1017.28C1413.27 1015.23 1406.17 1012.9 1400.96 1007.97C1388.77 996.446 1391.79 976.354 1398.07 960.808C1405.69 941.939 1416.77 924.472 1430.59 909.531C1435.32 904.423 1440.44 899.491 1443.54 893.259C1446.63 887.027 1447.28 879.009 1443.11 873.443C1436.07 864.063 1434.59 851.743 1433.86 840.04C1433.12 828.338 1432.79 816.171 1427.48 805.72C1422.16 795.268 1410.09 787.144 1398.88 790.571C1396.16 786.419 1401.53 781.626 1406.26 780.124C1424.12 774.448 1444.13 779.417 1459.79 789.717C1475.45 800.017 1487.33 815.121 1497.53 830.842C1501.51 836.981 1508.25 844.19 1514.75 840.817C1559.1 817.786 1613.23 814.43 1660.09 831.804C1666.61 834.219 1676.62 835.253 1677.95 828.435C1684.56 794.479 1712.9 765.8 1746.77 758.782C1733.46 768.33 1732.66 787.751 1735.32 803.915C1737.98 820.079 1742.68 837.299 1736.03 852.273C1730.67 864.358 1744.18 875.719 1755.12 883.144C1771.65 894.358 1786.42 908.142 1798.75 923.848C1810.96 939.388 1821.13 959.359 1815.55 978.315C1808.26 1003.13 1779.05 1012.95 1753.92 1019.08C1729.39 1025.06 1704.86 1031.04 1680.33 1037.02C1679.88 1060.95 1688.42 1084.95 1703.9 1103.21C1716.31 1117.85 1734.35 1132.95 1730.4 1151.74C1738.66 1164.85 1661.09 1164.16 1497.69 1149.67Z" fill="white"/>
<path fill-rule="evenodd" clip-rule="evenodd" d="M1556.56 1473.3C1565.02 1478.53 1574.39 1484.79 1584.05 1482.46C1606.43 1477.06 1630.38 1478.42 1652.01 1486.3C1661.11 1489.62 1669.36 1480.21 1675.07 1472.38C1691.62 1449.65 1713.28 1430.65 1737.97 1417.19C1754.99 1445.13 1737.75 1483.81 1752.55 1512.99C1775.46 1558.16 1769.37 1616.5 1737.63 1655.97C1770.94 1688.51 1793.59 1731.8 1801.34 1777.72C1797.38 1778.89 1594.5 1804.05 1483.09 1773.86C1481.86 1741.49 1493.53 1708.81 1514.98 1684.55C1483.13 1647.04 1467.59 1596.14 1473.06 1547.23C1473.63 1542.14 1474.36 1536.72 1472.1 1532.12C1460.21 1508.06 1452.03 1482.17 1447.91 1455.65C1447.67 1454.07 1447.47 1452.33 1448.3 1450.96C1449.41 1449.15 1451.84 1448.75 1453.96 1448.58C1489.62 1445.67 1526.14 1454.47 1556.56 1473.3Z" fill="white"/>
<path fill-rule="evenodd" clip-rule="evenodd" d="M591.649 1782.12C595.703 1757.85 599.757 1733.58 603.811 1709.31C604.863 1703.01 604.716 1694.58 598.643 1692.6C579.703 1686.45 563.7 1671.81 555.887 1653.49C553.426 1647.72 545.831 1645.67 539.792 1647.37C533.753 1649.06 528.934 1653.51 524.364 1657.81C526.97 1647.62 536.332 1639.52 546.79 1638.42C550.341 1632.44 545.257 1624.17 538.52 1622.43C531.784 1620.69 524.69 1623.73 519.064 1627.82C518.626 1621.34 526.516 1618.17 532.495 1615.62C538.474 1613.07 544.312 1605.03 539.215 1601C536.993 1599.24 533.833 1599.55 531.029 1599.95C522.923 1601.11 514.816 1602.27 506.71 1603.43C507.631 1596.91 516.113 1595.23 522.685 1594.73C529.258 1594.22 537.744 1591.02 537.013 1584.47C534.195 1559.22 540.308 1533.62 550.511 1510.36C558.963 1491.09 534.088 1471.79 535.721 1450.81C535.848 1449.18 536.234 1447.4 537.545 1446.43C539.11 1445.28 541.3 1445.74 543.16 1446.31C555.966 1450.26 567.84 1457.2 577.569 1466.42C582.292 1470.89 589.899 1467.84 595.84 1465.19C617.75 1455.41 643.43 1454.4 666.042 1462.42C686.461 1469.67 704.572 1434.72 724.808 1442.47C719.643 1459.46 714.478 1476.46 709.313 1493.46C707.888 1498.15 706.54 1503.53 709.13 1507.69C717.858 1521.71 723.15 1537.85 724.417 1554.32C725.31 1565.92 727.556 1581.58 739.152 1582.49C734.101 1584.71 728.531 1587.48 726.783 1592.72C725.034 1597.95 731.011 1604.85 735.537 1601.7C739.442 1598.97 745.754 1601.25 747.025 1605.84C740.334 1605.18 733.075 1605.91 727.843 1610.13C722.612 1614.36 720.56 1622.9 724.992 1627.96C734.721 1623.95 746.212 1624.48 755.534 1629.36C749.978 1633.44 742.347 1632.23 735.464 1631.82C728.581 1631.41 720.198 1633 717.762 1639.45C709.632 1660.98 689.653 1677.6 667 1681.67C655.842 1683.67 654.053 1698.76 654.972 1710.06C656.902 1733.77 658.832 1757.47 660.762 1781.17C656.787 1784.95 610.644 1790.18 591.649 1782.12Z" fill="white"/>
<path fill-rule="evenodd" clip-rule="evenodd" d="M282.852 1680.31C282.062 1692.11 283.03 1704.03 285.715 1715.55C286.848 1720.41 294.138 1721.31 297.927 1718.06C301.716 1714.82 302.726 1709.42 303.134 1704.45C303.737 1697.1 303.544 1689.69 302.558 1682.38C302.048 1678.6 301.265 1674.71 298.988 1671.65C296.71 1668.6 292.547 1666.64 288.988 1668.01C284.457 1669.74 283.177 1675.47 282.852 1680.31V1680.31Z" fill="white"/>
<path fill-rule="evenodd" clip-rule="evenodd" d="M1199.28 1745.37C1200.69 1746.16 1200.49 1748.44 1199.3 1749.54C1198.1 1750.64 1196.38 1750.87 1194.77 1751.06C1189.15 1751.71 1182.97 1752.22 1178.32 1749.01C1180.68 1747.33 1183.05 1745.64 1185.42 1743.95C1183.93 1741.82 1181.01 1741.38 1178.43 1741.07C1175.84 1740.75 1172.91 1740.13 1171.65 1737.86C1170.39 1735.58 1173.13 1731.96 1175.2 1733.54C1181.58 1738.42 1190.95 1738.98 1197.86 1734.88C1202.41 1732.19 1206.72 1727.51 1211.91 1728.52C1208.28 1735.59 1201.1 1740.7 1193.24 1741.82C1193.42 1744.57 1196.79 1746.55 1199.28 1745.37Z" fill="#00160A"/>
<path fill-rule="evenodd" clip-rule="evenodd" d="M297.286 1741.69C291.664 1742.34 285.477 1742.86 280.82 1739.65C283.205 1737.95 285.589 1736.26 287.974 1734.57C286.331 1732.49 283.384 1732.13 280.76 1731.77C278.136 1731.41 275.15 1730.61 274.064 1728.19C272.977 1725.78 276.227 1722.4 278.082 1724.29C282.638 1728.94 290.208 1729.23 296.365 1727.12C302.522 1725.01 307.777 1720.94 313.391 1717.65C313.534 1725.95 303.807 1730.33 295.8 1732.55C295.986 1735.26 299.338 1737.19 301.778 1736.01C303.195 1736.79 303.001 1739.07 301.811 1740.17C300.621 1741.27 298.895 1741.51 297.286 1741.69V1741.69Z" fill="#00160A"/>
<path fill-rule="evenodd" clip-rule="evenodd" d="M285.004 1725.29C276.208 1722.01 274.436 1710.56 274.075 1701.18C273.836 1694.98 273.597 1688.77 273.358 1682.57C273.224 1679.09 273.1 1675.54 274.126 1672.22C275.837 1666.67 280.923 1662.33 286.664 1661.5C292.405 1660.67 298.511 1663.4 301.719 1668.24C303.553 1671 304.446 1674.27 305.147 1677.51C306.642 1684.42 307.388 1691.49 307.37 1698.56C307.351 1705.41 306.508 1712.57 302.706 1718.27C298.904 1723.97 291.423 1727.68 285.004 1725.29H285.004ZM292.885 1720.13C297.437 1718.69 299.11 1713.2 299.755 1708.47C300.875 1700.26 300.969 1691.91 300.035 1683.68C299.564 1679.53 298.756 1675.24 296.207 1671.93C293.658 1668.63 288.887 1666.7 285.168 1668.59C280.556 1670.94 280.025 1677.2 280.112 1682.37C280.224 1689.11 280.337 1695.85 280.449 1702.58C280.519 1706.78 280.631 1711.14 282.573 1714.86C284.515 1718.58 288.886 1721.39 292.885 1720.13V1720.13Z" fill="#00160A"/>
<path fill-rule="evenodd" clip-rule="evenodd" d="M1177.95 1669.42C1184.21 1665.43 1193.06 1668.29 1197.77 1674.03C1202.48 1679.76 1203.89 1687.5 1204.33 1694.91C1204.58 1699.2 1204.56 1703.51 1204.27 1707.8C1203.86 1713.82 1202.84 1720.02 1199.5 1725.05C1196.16 1730.08 1190 1733.65 1184.1 1732.35C1179.03 1731.24 1175.2 1726.83 1173.37 1721.97C1171.54 1717.12 1171.36 1711.82 1171.2 1706.64C1171.05 1701.7 1170.91 1696.76 1170.76 1691.82C1170.51 1683.6 1171.02 1673.85 1177.95 1669.42ZM1185.39 1726.68C1188.8 1727.52 1192.41 1725.43 1194.35 1722.5C1196.29 1719.57 1196.89 1715.97 1197.26 1712.47C1198.06 1704.78 1197.97 1696.99 1196.98 1689.31C1196.47 1685.38 1195.65 1681.32 1193.24 1678.18C1190.82 1675.04 1186.36 1673.15 1182.76 1674.81C1178.44 1676.8 1177.47 1682.42 1177.25 1687.17C1176.85 1696.17 1177.15 1705.2 1178.13 1714.15C1178.69 1719.28 1180.38 1725.44 1185.39 1726.68V1726.68Z" fill="#00160A"/>
<path fill-rule="evenodd" clip-rule="evenodd" d="M1177.19 1686.52C1176.4 1698.32 1177.37 1710.24 1180.05 1721.76C1181.18 1726.62 1188.47 1727.52 1192.26 1724.27C1196.05 1721.03 1197.06 1715.63 1197.47 1710.66C1198.07 1703.31 1197.88 1695.9 1196.89 1688.59C1196.38 1684.81 1195.6 1680.92 1193.32 1677.86C1191.05 1674.81 1186.88 1672.85 1183.32 1674.22C1178.79 1675.95 1177.51 1681.68 1177.19 1686.52V1686.52Z" fill="white"/>
<path fill-rule="evenodd" clip-rule="evenodd" d="M1164.67 1118.37C1165.32 1116.25 1168.05 1115.48 1170.21 1115.98C1172.36 1116.49 1174.2 1117.87 1176.23 1118.74C1183.83 1121.99 1192.53 1117.76 1198.99 1112.6C1201.16 1110.87 1204.64 1109.13 1206.28 1111.37C1202.39 1117.98 1195.46 1122.72 1187.88 1123.93C1188.11 1126.65 1191.43 1128.59 1193.91 1127.45C1195.31 1128.25 1195.1 1130.5 1193.91 1131.59C1192.73 1132.68 1191.01 1132.92 1189.42 1133.1C1183.84 1133.75 1177.73 1134.28 1173.05 1131.18C1175.55 1129.21 1178.05 1127.25 1180.54 1125.29C1174.75 1124.51 1169.19 1122.08 1164.67 1118.37Z" fill="#00160A"/>
<path fill-rule="evenodd" clip-rule="evenodd" d="M1453.96 1448.58C1489.62 1445.67 1526.14 1454.47 1556.56 1473.3C1565.02 1478.53 1574.39 1484.79 1584.05 1482.46C1606.43 1477.06 1630.38 1478.42 1652.01 1486.3C1661.11 1489.62 1669.36 1480.21 1675.07 1472.38C1691.62 1449.65 1713.28 1430.65 1737.97 1417.19C1754.99 1445.13 1737.75 1483.81 1752.55 1512.99C1775.46 1558.16 1769.37 1616.5 1737.63 1655.97C1770.94 1688.51 1793.59 1731.8 1801.34 1777.72C1797.38 1778.89 1794.78 1773.72 1793.82 1769.7C1785.28 1733.82 1768.3 1699.97 1744.66 1671.66C1739.12 1665.03 1730.07 1658.16 1722.77 1662.77C1664.73 1699.41 1591.16 1710.48 1524.92 1692.53C1513.99 1689.57 1506.23 1702.84 1502.72 1713.61C1496.18 1733.69 1489.63 1753.77 1483.09 1773.86C1481.86 1741.49 1493.53 1708.81 1514.98 1684.55C1483.13 1647.04 1467.59 1596.14 1473.06 1547.23C1473.63 1542.14 1474.36 1536.72 1472.1 1532.12C1460.21 1508.06 1452.03 1482.17 1447.91 1455.65C1447.67 1454.07 1447.47 1452.33 1448.3 1450.96C1449.41 1449.15 1451.84 1448.75 1453.96 1448.58ZM1598.6 1512.87C1586 1524.44 1575.61 1538.4 1568.16 1553.8C1563.75 1539.04 1566.14 1522.4 1574.51 1509.47C1563.19 1513.71 1552.7 1520.18 1543.83 1528.4C1543.84 1516.11 1550.09 1503.98 1560.09 1496.84C1555.76 1496.96 1551.43 1497.09 1547.1 1497.22C1551.61 1491.62 1557.97 1487.54 1564.93 1485.76C1533.03 1463 1493.03 1451.86 1453.96 1454.82C1460.85 1495.55 1477.3 1534.63 1501.61 1568.02C1491.22 1563.77 1482.73 1555.1 1478.71 1544.62C1474.26 1586.6 1484.94 1630.03 1508.37 1665.15C1512.73 1671.69 1517.61 1678.03 1523.94 1682.69C1534.44 1690.43 1547.89 1692.8 1560.88 1693.98C1612.82 1698.72 1666.09 1687.69 1711.87 1662.7C1720.67 1657.9 1729.29 1652.52 1736.26 1645.32C1745.49 1635.8 1751.41 1623.48 1755.22 1610.78C1765.22 1577.45 1760.98 1540.1 1743.76 1509.86C1740.65 1519.13 1737.55 1528.41 1734.44 1537.69C1733.12 1541.6 1727.3 1545.69 1726.19 1541.71C1741.63 1505.12 1744.94 1463.53 1735.49 1424.96C1700.22 1448.36 1670.67 1480.31 1650.09 1517.29C1649.22 1508.68 1651.44 1499.79 1656.24 1492.58C1633.98 1509.64 1614.68 1530.55 1599.48 1554.12C1596.71 1540.57 1596.41 1526.53 1598.6 1512.87Z" fill="#00160A"/>
<path fill-rule="evenodd" clip-rule="evenodd" d="M262.681 1125.31C265.686 1125.84 268.93 1124.69 270.931 1122.38C264.859 1121.3 259.047 1118.78 254.105 1115.09C256.074 1111.72 261.117 1113.75 264.753 1115.17C273.56 1118.61 284.555 1115.07 289.699 1107.14C291.083 1105 294.79 1107.45 294.383 1109.96C293.977 1112.47 291.501 1114.02 289.27 1115.25C285.008 1117.58 280.746 1119.92 276.484 1122.25C279.986 1122.57 283.359 1124.17 285.818 1126.69C281.172 1130.47 274.628 1130.54 268.637 1130.44C267.01 1130.41 265.291 1130.35 263.914 1129.49C262.538 1128.62 261.73 1126.63 262.681 1125.31Z" fill="#00160A"/>
<path fill-rule="evenodd" clip-rule="evenodd" d="M1169.36 1059.21C1174.19 1051.67 1186.33 1050.36 1192.65 1056.7C1196.28 1060.34 1197.8 1065.55 1198.76 1070.6C1200.06 1077.44 1200.59 1084.43 1200.34 1091.38C1200.11 1097.8 1199.12 1104.45 1195.5 1109.75C1191.89 1115.05 1185.05 1118.59 1178.93 1116.67C1169.76 1113.81 1167.68 1101.98 1167.23 1092.39C1166.99 1087.32 1166.75 1082.25 1166.51 1077.18C1166.22 1071.02 1166.04 1064.41 1169.36 1059.21ZM1173.2 1071.54C1172.41 1083.34 1173.37 1095.26 1176.06 1106.78C1177.19 1111.63 1184.48 1112.53 1188.27 1109.29C1192.06 1106.04 1193.07 1100.65 1193.48 1095.68C1194.08 1088.33 1193.89 1080.91 1192.9 1073.61C1192.39 1069.83 1191.61 1065.93 1189.33 1062.88C1187.05 1059.82 1182.89 1057.87 1179.33 1059.23C1174.8 1060.97 1173.52 1066.69 1173.2 1071.54Z" fill="#00160A"/>
<path fill-rule="evenodd" clip-rule="evenodd" d="M264.221 1065.45C263.43 1077.26 264.398 1089.18 267.083 1100.7C268.216 1105.55 275.506 1106.45 279.295 1103.21C283.084 1099.96 284.094 1094.57 284.502 1089.6C285.105 1082.25 284.912 1074.83 283.926 1067.52C283.416 1063.75 282.633 1059.85 280.356 1056.8C278.078 1053.74 273.915 1051.79 270.356 1053.15C265.825 1054.89 264.545 1060.61 264.221 1065.45V1065.45Z" fill="white"/>
<path fill-rule="evenodd" clip-rule="evenodd" d="M266.028 1112.54C259.38 1109.22 257.559 1100.72 256.83 1093.32C256.12 1086.11 255.713 1078.87 255.611 1071.63C255.543 1066.79 255.663 1061.73 257.937 1057.45C260.409 1052.8 265.426 1049.62 270.684 1049.36C275.942 1049.1 281.251 1051.77 284.171 1056.15C286.087 1059.02 286.973 1062.45 287.646 1065.84C289.033 1072.82 289.652 1079.95 289.489 1087.07C289.331 1093.98 288.307 1101.22 284.221 1106.79C280.135 1112.37 272.214 1115.63 266.028 1112.54V1112.54ZM264.253 1100.16C264.737 1102.46 265.406 1104.86 267.113 1106.48C270.465 1109.64 276.388 1108.07 279.219 1104.43C282.05 1100.79 282.569 1095.9 282.756 1091.29C283.031 1084.49 282.816 1077.67 282.114 1070.9C281.716 1067.06 281.11 1063.09 279.001 1059.86C276.892 1056.62 272.884 1054.32 269.159 1055.34C263.267 1056.95 262.13 1064.69 262.152 1070.8C262.187 1080.63 262.231 1090.54 264.253 1100.16V1100.16Z" fill="#00160A"/>
<path fill-rule="evenodd" clip-rule="evenodd" d="M1497.69 1149.67C1499.18 1127.23 1521.74 1113.37 1536.59 1096.48C1550.15 1081.06 1558.1 1060.8 1558.65 1040.28C1511.77 1038.42 1465.12 1030.68 1420.15 1017.28C1413.27 1015.23 1406.17 1012.9 1400.96 1007.97C1388.77 996.446 1391.79 976.354 1398.07 960.808C1405.69 941.939 1416.77 924.472 1430.59 909.531C1435.32 904.423 1440.44 899.491 1443.54 893.259C1446.63 887.027 1447.28 879.009 1443.11 873.443C1436.07 864.063 1434.59 851.743 1433.86 840.04C1433.12 828.338 1432.79 816.171 1427.48 805.72C1422.16 795.268 1410.09 787.144 1398.88 790.571C1396.16 786.419 1401.53 781.626 1406.26 780.124C1424.12 774.448 1444.13 779.417 1459.79 789.717C1475.45 800.017 1487.33 815.121 1497.53 830.842C1501.51 836.981 1508.25 844.19 1514.75 840.817C1559.1 817.786 1613.23 814.43 1660.09 831.804C1666.61 834.219 1676.62 835.253 1677.95 828.435C1684.56 794.479 1712.9 765.8 1746.77 758.782C1733.46 768.33 1732.66 787.751 1735.32 803.915C1737.98 820.079 1742.68 837.299 1736.03 852.273C1730.67 864.358 1744.18 875.719 1755.12 883.144C1771.65 894.358 1786.42 908.142 1798.75 923.848C1810.96 939.388 1821.13 959.359 1815.55 978.315C1808.26 1003.13 1779.05 1012.95 1753.92 1019.08C1729.39 1025.06 1704.86 1031.04 1680.33 1037.02C1679.88 1060.95 1688.42 1084.95 1703.9 1103.21C1716.31 1117.85 1734.35 1132.95 1730.4 1151.74C1722.01 1131.76 1706.26 1115.97 1693.61 1098.37C1680.96 1080.78 1670.99 1058.76 1676.71 1037.86C1665.51 1033.85 1653.76 1041.86 1645.29 1050.21C1636.82 1058.56 1627.89 1068.4 1616.02 1069.07C1596.46 1070.17 1584.25 1046.3 1565.13 1042.03C1564.69 1054.83 1561.34 1067.52 1555.41 1078.87C1549.1 1090.94 1540.04 1101.31 1531.07 1111.56C1519.94 1124.26 1508.81 1136.97 1497.69 1149.67ZM1515.91 846.106C1504.02 851.89 1522.44 874.488 1511.79 882.334C1506.32 852.629 1490.8 824.867 1468.36 804.643C1453.79 791.508 1434.46 781.16 1415.18 784.809C1426.45 789.236 1433.31 800.95 1436.26 812.694C1439.21 824.438 1439.11 836.727 1441.16 848.66C1444.78 869.666 1455.29 889.428 1470.68 904.171C1463.67 904.08 1456.88 899.772 1453.81 893.468C1432.22 912.871 1414.88 936.964 1403.33 963.587C1398.78 974.09 1395.22 986.615 1400.86 996.578C1405.62 1004.98 1415.46 1008.89 1424.65 1011.86C1457.71 1022.57 1492.09 1029.16 1526.77 1031.44C1547.49 1032.8 1569.86 1033.15 1586.42 1045.67C1592.43 1050.22 1597.37 1056.21 1603.93 1059.94C1610.49 1063.66 1619.74 1064.42 1624.85 1058.87C1644.78 1037.2 1675.09 1028.79 1704.05 1023.46C1733.01 1018.13 1763.25 1014.56 1788.5 999.409C1797.97 993.721 1806.96 985.848 1810.02 975.229C1814.19 960.791 1806.41 945.723 1797.62 933.534C1779.9 908.953 1756.84 888.241 1730.5 873.248C1729.36 877.808 1726.54 881.927 1722.7 884.648C1721.47 879.487 1723.72 874.221 1725.53 869.23C1736.7 838.379 1731.61 804.315 1726.38 771.923C1692.11 791.7 1674.3 836.185 1685.46 874.15C1678.92 875.365 1675.83 866.206 1676.47 859.589C1677.1 852.972 1677.63 844.328 1671.5 841.758C1622.18 821.087 1564 822.712 1515.91 846.106Z" fill="#00160A"/>
<path fill-rule="evenodd" clip-rule="evenodd" d="M607.768 1551.21C611.211 1557.02 611.591 1564.54 608.753 1570.67C607.247 1573.93 602.154 1573.81 599.598 1571.3C597.041 1568.79 596.37 1564.98 595.875 1561.43C595.427 1558.22 595.037 1554.83 596.262 1551.82C597.487 1548.82 600.913 1546.46 603.964 1547.56C605.65 1548.17 606.855 1549.66 607.768 1551.21V1551.21Z" fill="#00160A"/>
<path fill-rule="evenodd" clip-rule="evenodd" d="M660.762 1781.17C649.856 1753.49 646.215 1722.99 650.301 1693.52C640.026 1704.78 621.064 1706.7 608.74 1697.73C611.688 1726.72 605.645 1756.56 591.649 1782.12C595.703 1757.85 599.757 1733.58 603.811 1709.31C604.863 1703.01 604.716 1694.58 598.643 1692.6C579.703 1686.45 563.7 1671.81 555.887 1653.49C553.426 1647.72 545.831 1645.67 539.792 1647.37C533.753 1649.06 528.934 1653.51 524.364 1657.81C526.97 1647.62 536.332 1639.52 546.79 1638.42C550.341 1632.44 545.257 1624.17 538.52 1622.43C531.784 1620.69 524.69 1623.73 519.064 1627.82C518.626 1621.34 526.516 1618.17 532.495 1615.62C538.474 1613.07 544.312 1605.03 539.215 1601C536.993 1599.24 533.833 1599.55 531.029 1599.95C522.923 1601.11 514.816 1602.27 506.71 1603.43C507.631 1596.91 516.113 1595.23 522.685 1594.73C529.258 1594.22 537.744 1591.02 537.013 1584.47C534.195 1559.22 540.308 1533.62 550.511 1510.36C558.963 1491.09 534.088 1471.79 535.721 1450.81C535.848 1449.18 536.234 1447.4 537.545 1446.43C539.11 1445.28 541.3 1445.74 543.16 1446.31C555.966 1450.26 567.84 1457.2 577.569 1466.42C582.292 1470.89 589.899 1467.84 595.84 1465.19C617.75 1455.41 643.43 1454.4 666.042 1462.42C686.461 1469.67 704.572 1434.72 724.808 1442.47C719.643 1459.46 714.478 1476.46 709.313 1493.46C707.888 1498.15 706.54 1503.53 709.13 1507.69C717.858 1521.71 723.15 1537.85 724.417 1554.32C725.31 1565.92 727.556 1581.58 739.152 1582.49C734.101 1584.71 728.531 1587.48 726.783 1592.72C725.034 1597.95 731.011 1604.85 735.537 1601.7C739.442 1598.97 745.754 1601.25 747.025 1605.84C740.334 1605.18 733.075 1605.91 727.843 1610.13C722.612 1614.36 720.56 1622.9 724.992 1627.96C734.721 1623.95 746.212 1624.48 755.534 1629.36C749.978 1633.44 742.347 1632.23 735.464 1631.82C728.581 1631.41 720.198 1633 717.762 1639.45C709.632 1660.98 689.653 1677.6 667 1681.67C655.842 1683.67 654.053 1698.76 654.972 1710.06C656.902 1733.77 658.832 1757.47 660.762 1781.17ZM669.769 1610.8C666.195 1614.06 660.034 1617.46 657.386 1613.41C672.676 1597.01 693.641 1585.99 715.825 1582.71C720.352 1582.04 721.355 1576 721.031 1571.43C719.439 1548.98 712.995 1526.88 702.269 1507.08C700.661 1511.24 695.568 1513.69 691.316 1512.34C703.999 1493.28 712.342 1471.36 715.537 1448.7C695.237 1457.11 677.202 1470.92 663.779 1488.32C661.91 1481.64 664.897 1473.91 670.769 1470.22C643.992 1460.39 613.219 1462.03 587.638 1474.65C588.304 1478.8 588.97 1482.95 589.636 1487.11C577.087 1471.91 560.734 1459.87 542.489 1452.41C548.42 1474.56 557.067 1495.98 568.174 1516.04C563.35 1517.08 558.113 1512.9 558.058 1507.97C547.98 1529.9 542.44 1553.9 541.887 1578.02C541.728 1584.96 544.521 1594.34 551.421 1593.63C570.257 1591.68 589.811 1598.23 603.669 1611.13C590.806 1607.42 577.943 1603.7 565.079 1599.98C559.544 1598.39 553.195 1596.89 548.343 1600C543.491 1603.1 544.068 1612.74 549.829 1612.85C564.915 1608.45 581.965 1611.41 594.692 1620.63C579.795 1617.31 564.214 1617.1 549.232 1620.01C545.494 1629.03 558.187 1636.08 567.949 1636.04C577.71 1635.99 589.933 1634.94 594.672 1643.47C582.704 1642.85 570.737 1642.23 558.769 1641.6C562.052 1662.93 580.384 1681.04 601.746 1684.07C605.823 1684.65 608.497 1688.44 611.532 1691.22C623.6 1702.29 646.777 1694.77 650.049 1678.73C677.848 1677.88 704.324 1659.39 714.697 1633.58C700.596 1635.58 686.495 1637.59 672.395 1639.59C675.695 1633.22 683.536 1630.78 690.668 1630.04C697.799 1629.29 705.338 1629.54 711.661 1626.16C717.984 1622.78 722.092 1613.87 717.566 1608.3C699.947 1614.5 682.329 1620.69 664.71 1626.88C670.573 1618.15 679.815 1611.74 690.055 1609.32C697.194 1607.63 704.781 1607.8 711.613 1605.13C718.445 1602.45 724.547 1595.42 722.614 1588.34C703.144 1589.58 684.176 1597.64 669.769 1610.8Z" fill="#00160A"/>
<path fill-rule="evenodd" clip-rule="evenodd" d="M652.112 1537.76C649.747 1537.64 646.886 1537.18 646.013 1534.98C651.773 1528.45 664.251 1530.53 667.587 1538.56C662.429 1538.3 657.271 1538.03 652.112 1537.76Z" fill="#00160A"/>
<path fill-rule="evenodd" clip-rule="evenodd" d="M643.27 1660.07C645.116 1662.29 644.733 1665.79 642.997 1668.11C641.261 1670.42 638.483 1671.72 635.694 1672.49C631.633 1673.61 626.825 1673.59 623.734 1670.73C619.261 1666.59 621.413 1658.17 626.913 1655.54C632.412 1652.91 639.379 1655.38 643.27 1660.07ZM627.232 1661.34C625.835 1663.94 628.802 1667.15 631.755 1667.15C634.708 1667.16 637.254 1665.2 639.542 1663.33C636.535 1660.04 631.176 1659.23 627.325 1661.46L627.232 1661.34Z" fill="#00160A"/>
<path fill-rule="evenodd" clip-rule="evenodd" d="M658.723 1570.93C655.091 1572.76 650.502 1569.82 649.129 1565.99C647.757 1562.16 648.677 1557.93 649.734 1554C650.336 1551.76 651.145 1549.31 653.162 1548.17C655.868 1546.63 659.486 1548.39 661.059 1551.07C662.632 1553.76 662.708 1557.03 662.742 1560.14C662.786 1564.2 662.345 1569.1 658.723 1570.93V1570.93Z" fill="#00160A"/>
<path fill-rule="evenodd" clip-rule="evenodd" d="M593.378 1660.25C604.296 1661.65 615.804 1656.37 621.852 1647.17C627.9 1637.97 628.191 1625.31 622.572 1615.84C619.6 1610.84 615.079 1604.6 618.678 1600.02C620.505 1597.69 623.75 1597.1 626.703 1596.94C629.931 1596.77 633.361 1596.97 636.057 1598.75C638.753 1600.53 640.323 1604.35 638.684 1607.14C632.207 1618.13 633.198 1633.06 641.072 1643.1C648.946 1653.15 663.2 1657.68 675.428 1654.02C677.665 1653.35 681.331 1653.58 680.89 1655.87C680.783 1656.43 680.397 1656.88 680.003 1657.29C673.094 1664.42 661.118 1663.26 652.221 1658.85C643.95 1654.74 636.854 1648.3 631.968 1640.47C627.597 1647.92 623.086 1655.55 616.393 1661.01C609.7 1666.48 600.261 1669.43 592.241 1666.21C590.043 1665.33 587.763 1662.68 589.351 1660.92C590.303 1659.87 591.97 1660.06 593.378 1660.25Z" fill="#00160A"/>
<path fill-rule="evenodd" clip-rule="evenodd" d="M612.723 1535.09C613.271 1536.81 610.868 1537.86 609.073 1538.05C605.668 1538.42 602.263 1538.78 598.859 1539.15C596.229 1539.44 592.453 1538.67 592.744 1536.04C597.424 1531.11 605.678 1530.08 611.426 1533.71C611.972 1534.05 612.527 1534.48 612.723 1535.09Z" fill="#00160A"/>
<path fill-rule="evenodd" clip-rule="evenodd" d="M1531.34 1725.97C1530.66 1719.5 1530.81 1711.9 1535.94 1707.9C1540.44 1704.38 1546.84 1705.21 1552.46 1706.22C1561.39 1707.82 1570.32 1709.41 1579.25 1711.01C1586.23 1712.26 1593.7 1713.45 1600.18 1710.6C1605.36 1708.32 1611.29 1710.76 1616.95 1710.81C1621.56 1710.85 1626.02 1709.27 1630.36 1707.71C1643.69 1702.93 1657.02 1698.14 1670.35 1693.36C1672.8 1692.48 1675.53 1691.6 1677.94 1692.58C1681.6 1694.07 1682.42 1698.8 1682.71 1702.75C1683.03 1707.24 1683.35 1711.74 1683.67 1716.23C1684.07 1721.72 1684.43 1727.46 1682.27 1732.52C1680.12 1737.59 1674.61 1741.69 1669.28 1740.31C1655.51 1736.76 1641.51 1734.14 1627.4 1732.45C1624.56 1732.11 1620.86 1732.32 1619.93 1735.02C1617.78 1741.22 1608.91 1740.23 1602.44 1739.14C1587.6 1736.63 1571.79 1740.54 1559.83 1749.67C1556.63 1752.11 1553.63 1754.95 1549.94 1756.55C1546.24 1758.16 1541.51 1758.24 1538.58 1755.48C1536.58 1753.59 1535.79 1750.78 1535.14 1748.11C1533.39 1740.82 1532.12 1733.42 1531.34 1725.97ZM1598.29 1720.8C1580.28 1717.38 1562.18 1714.43 1544.02 1711.94C1541.15 1711.55 1538.49 1713.92 1537.54 1716.65C1536.6 1719.38 1536.96 1722.38 1537.38 1725.24C1538.29 1731.52 1539.4 1737.78 1540.7 1744C1541.1 1745.94 1541.57 1747.98 1542.89 1749.46C1544.22 1750.95 1546.67 1751.62 1548.22 1750.36C1558.06 1742.36 1569.72 1736.61 1582.05 1733.66C1585.76 1732.77 1589.62 1732.1 1592.9 1730.15C1596.18 1728.2 1598.81 1724.58 1598.29 1720.8V1720.8ZM1649.56 1706.88C1639.97 1709.53 1629.79 1712.53 1623.34 1720.11C1621.38 1722.41 1620.98 1727.3 1624 1727.19C1639.06 1726.62 1654.23 1728.97 1668.42 1734.07C1671.43 1735.16 1674.83 1733 1676.26 1730.13C1677.68 1727.26 1677.64 1723.91 1677.56 1720.71C1677.41 1714.67 1677.27 1708.64 1677.12 1702.6C1677.1 1701.63 1676.96 1700.47 1676.09 1700.05C1675.51 1699.76 1674.82 1699.93 1674.2 1700.1C1665.98 1702.36 1657.77 1704.62 1649.56 1706.88ZM1602.71 1729.28C1603.13 1730.7 1603.74 1732.13 1604.86 1733.1C1607.6 1735.46 1612.23 1733.77 1614.07 1730.64C1615.92 1727.52 1615.73 1723.63 1615.31 1720.03C1614.81 1715.71 1608.36 1714.3 1605.09 1717.17C1601.82 1720.04 1601.48 1725.11 1602.71 1729.28V1729.28Z" fill="#00160A"/>
<path fill-rule="evenodd" clip-rule="evenodd" d="M1710.02 1613.45C1702.05 1612.47 1693.81 1613.72 1686.48 1617.02C1684.59 1617.87 1682.75 1615.07 1683.57 1613.17C1684.39 1611.26 1686.53 1610.35 1688.49 1609.67C1699.8 1605.69 1714.17 1603.72 1722.24 1612.59C1718.79 1614.95 1714.18 1613.96 1710.02 1613.45V1613.45Z" fill="#00160A"/>
<path fill-rule="evenodd" clip-rule="evenodd" d="M1622.96 1655.73C1623.15 1661.89 1617.31 1666.9 1611.25 1668C1605.18 1669.1 1599.01 1667.29 1593.12 1665.5C1587.98 1663.94 1586.38 1656.73 1589.09 1652.1C1591.8 1647.47 1597.28 1645.18 1602.58 1644.31C1606.94 1643.6 1611.57 1643.67 1615.58 1645.53C1619.59 1647.4 1622.83 1651.32 1622.96 1655.73V1655.73ZM1594.52 1657.21C1594.81 1659.06 1596.97 1659.86 1598.79 1660.3C1602.31 1661.17 1605.94 1662.04 1609.53 1661.51C1613.12 1660.97 1616.7 1658.69 1617.63 1655.18C1612.3 1649.67 1602.79 1648.92 1596.65 1653.52C1595.46 1654.41 1594.29 1655.73 1594.52 1657.21V1657.21Z" fill="#00160A"/>
<path fill-rule="evenodd" clip-rule="evenodd" d="M1530.68 1624.31C1520.04 1624.33 1509.4 1624.36 1498.75 1624.38C1496.51 1624.39 1493.35 1623.21 1494.1 1621.1C1505.22 1616.26 1518.12 1615.67 1529.63 1619.48C1531.74 1620.18 1534.05 1623.04 1532.08 1624.08C1531.66 1624.3 1531.16 1624.31 1530.68 1624.31V1624.31Z" fill="#00160A"/>
<path fill-rule="evenodd" clip-rule="evenodd" d="M1648.44 1583.8C1649.05 1580 1650.1 1575.6 1653.61 1574.03C1657 1572.53 1661.12 1574.68 1663.07 1577.83C1665.02 1580.98 1665.34 1584.84 1665.62 1588.54C1660.82 1588.98 1656.02 1589.42 1651.22 1589.86C1648.65 1590.09 1648.04 1586.35 1648.44 1583.8V1583.8Z" fill="#00160A"/>
<path fill-rule="evenodd" clip-rule="evenodd" d="M1690.12 1629.25C1688.57 1628.93 1686.98 1628.59 1685.69 1627.68C1684.76 1627.02 1684.03 1626.08 1683.63 1625.02C1694.48 1620.45 1708.29 1624.59 1714.83 1634.38C1706.59 1632.67 1698.36 1630.96 1690.12 1629.25V1629.25Z" fill="#00160A"/>
<path fill-rule="evenodd" clip-rule="evenodd" d="M1667.8 1563.15C1670.55 1558.74 1677.43 1560.8 1681.59 1563.93C1685.69 1567.01 1689.36 1570.66 1692.46 1574.74C1692.32 1577.14 1688.59 1576.6 1686.57 1575.29C1680.32 1571.24 1674.06 1567.2 1667.8 1563.15Z" fill="#00160A"/>
<path fill-rule="evenodd" clip-rule="evenodd" d="M1517.31 1635.94C1521.7 1634.44 1526.09 1632.94 1530.48 1631.44C1532.24 1630.84 1534.12 1630.23 1535.92 1630.68C1537.73 1631.12 1539.28 1633.08 1538.59 1634.8C1529.97 1638.03 1521.24 1640.95 1512.41 1643.57C1511.01 1642.37 1511.3 1639.98 1512.52 1638.59C1513.73 1637.19 1515.56 1636.54 1517.31 1635.94Z" fill="#00160A"/>
<path fill-rule="evenodd" clip-rule="evenodd" d="M1553.72 1580.61C1555.4 1581.75 1556.26 1583.72 1557.04 1585.59C1558.07 1588.07 1559.13 1590.74 1558.57 1593.37C1558.01 1596 1555.06 1598.27 1552.64 1597.09C1549.9 1595.76 1546.93 1600.66 1544.23 1599.24C1542.95 1598.57 1542.7 1596.88 1542.61 1595.44C1542.36 1591.57 1542.16 1587.47 1543.99 1584.05C1545.83 1580.63 1550.51 1578.44 1553.72 1580.61Z" fill="#00160A"/>
<path fill-rule="evenodd" clip-rule="evenodd" d="M1520.24 1578.89C1524.28 1568.94 1535.88 1562.72 1546.4 1564.84C1547.83 1565.13 1549.6 1566.2 1549.09 1567.57C1548.82 1568.3 1548.02 1568.64 1547.29 1568.91C1538.27 1572.23 1529.26 1575.56 1520.24 1578.89Z" fill="#00160A"/>
<path fill-rule="evenodd" clip-rule="evenodd" d="M1573.95 1629.13C1571.68 1629.42 1568.8 1629.2 1567.95 1627.08C1569.47 1625.87 1571.29 1624.58 1573.18 1625.02C1575.08 1625.46 1575.76 1628.77 1573.86 1629.17L1573.95 1629.13Z" fill="#00160A"/>
<path fill-rule="evenodd" clip-rule="evenodd" d="M1619.33 1625.88C1621.71 1625.48 1622.97 1622.13 1621.43 1620.27C1619.9 1618.4 1616.37 1618.99 1615.52 1621.25C1614.67 1623.51 1616.94 1626.28 1619.33 1625.88Z" fill="#00160A"/>
<path fill-rule="evenodd" clip-rule="evenodd" d="M1566.35 1642.05C1563.01 1641.57 1558.72 1639.39 1559.74 1636.18C1563.42 1634.06 1567.99 1635.87 1572.19 1636.48C1576.4 1637.09 1582.07 1634.79 1581.38 1630.6C1582.08 1632.36 1582.78 1634.13 1583.49 1635.9C1587.77 1634.76 1591.76 1632.56 1595.02 1629.56C1596.86 1627.87 1598.5 1624.96 1596.87 1623.06C1593.08 1618.68 1597.19 1610.46 1602.97 1610.86C1608.76 1611.26 1611.69 1619.97 1607.33 1623.79C1606.2 1624.78 1607.34 1626.6 1608.51 1627.54C1616.69 1634.11 1628.09 1636.44 1638.19 1633.61C1642.7 1632.35 1648.47 1630.49 1651.34 1634.2C1636.93 1644.61 1615.04 1642.8 1602.54 1630.17C1595.51 1641.65 1579.67 1643.98 1566.35 1642.05Z" fill="#00160A"/>
<path fill-rule="evenodd" clip-rule="evenodd" d="M1634.24 1622.31C1635.63 1622.93 1635.84 1625.18 1634.6 1626.06C1633.36 1626.94 1631.31 1625.99 1631.18 1624.47C1631.7 1623.34 1632.92 1622.58 1634.16 1622.59L1634.24 1622.31Z" fill="#00160A"/>
<path fill-rule="evenodd" clip-rule="evenodd" d="M1581.92 1623.89C1583.37 1626.13 1587.64 1623.35 1586.18 1621.12C1584.73 1618.88 1580.47 1621.66 1581.92 1623.89Z" fill="#00160A"/>
<path fill-rule="evenodd" clip-rule="evenodd" d="M1460.83 959.327C1455.23 959.948 1449.2 961.313 1444.25 958.637C1450.11 953.127 1458.85 952.055 1466.89 952.451C1480.5 953.124 1493.94 957.259 1505.57 964.362C1503.13 968.863 1496.38 966.651 1491.75 964.469C1482.18 959.96 1471.34 958.159 1460.83 959.327Z" fill="#00160A"/>
<path fill-rule="evenodd" clip-rule="evenodd" d="M1657.51 912.543C1656.62 909.179 1656.57 906.428 1659.64 904.786C1664.11 902.396 1678.21 902.617 1679.73 906.095C1681.26 909.574 1675.46 925.566 1667.32 925.566C1664.07 925.566 1658.4 915.908 1657.51 912.543Z" fill="#00160A"/>
<path fill-rule="evenodd" clip-rule="evenodd" d="M1747 952.166C1729.48 953.256 1712.15 957.081 1695.8 963.46C1693.56 964.335 1690.11 964.676 1689.6 962.324C1692.46 957.529 1698.19 955.38 1703.54 953.814C1715.53 950.309 1727.88 948.013 1740.32 946.971C1742.12 946.821 1744.05 946.721 1745.62 947.607C1747.19 948.492 1748.12 950.752 1747 952.166V952.166Z" fill="#00160A"/>
<path fill-rule="evenodd" clip-rule="evenodd" d="M1750.53 971.81C1736.68 973.048 1722.83 974.286 1708.98 975.524C1706.46 975.75 1702.67 974.063 1704.13 971.984C1718.38 967.533 1733.33 965.364 1748.25 965.587C1751.94 965.643 1756.23 966.174 1758.17 969.314C1756.21 971.221 1753.25 971.566 1750.53 971.81V971.81Z" fill="#00160A"/>
<path fill-rule="evenodd" clip-rule="evenodd" d="M1546.89 926.723C1543.95 930.174 1538 929.186 1534.85 925.923C1531.71 922.661 1530.64 917.982 1529.69 913.55C1529.2 911.24 1528.77 908.614 1530.14 906.694C1531.59 904.678 1551.68 904.534 1552.63 906.262C1553.59 907.99 1553 909.448 1552.63 910.79C1551.97 913.227 1549.01 924.223 1546.89 926.723Z" fill="#00160A"/>
<path fill-rule="evenodd" clip-rule="evenodd" d="M1441.99 981.502C1459.45 974.309 1478.94 972.117 1497.57 975.251C1499.56 975.587 1501.76 976.113 1502.89 977.788C1504.02 979.462 1502.93 982.455 1500.93 982.171C1479.29 979.094 1455.8 979.318 1437.39 991.091C1435.45 989.99 1435.32 987.054 1436.56 985.204C1437.79 983.353 1439.93 982.349 1441.99 981.502Z" fill="#00160A"/>
<path fill-rule="evenodd" clip-rule="evenodd" d="M1570.21 998.71C1569.31 996.123 1571.24 992.955 1573.95 992.566C1575.03 993.272 1575.75 994.516 1575.8 995.807C1574.96 997.801 1572.74 999.118 1570.58 998.904L1570.21 998.71Z" fill="#00160A"/>
<path fill-rule="evenodd" clip-rule="evenodd" d="M1541.96 886.619C1544.98 886.665 1549.13 888.691 1547.81 891.411C1534.66 892.182 1521.67 895.662 1509.89 901.572C1508.16 901.397 1507.33 899.093 1508 897.482C1508.68 895.87 1510.27 894.865 1511.8 894.033C1521 889.039 1531.49 886.459 1541.96 886.619Z" fill="#00160A"/>
<path fill-rule="evenodd" clip-rule="evenodd" d="M1615.36 996.501C1617.27 994.438 1621.13 994.777 1622.66 997.144C1621.16 999.997 1616.15 999.715 1614.98 996.711L1615.36 996.501Z" fill="#00160A"/>
<path fill-rule="evenodd" clip-rule="evenodd" d="M1628.68 995.126C1630.02 993.187 1633.8 994.866 1633.26 997.157C1632.7 998.311 1631.45 999.094 1630.17 999.093C1628.69 998.527 1627.96 996.547 1628.72 995.159L1628.68 995.126Z" fill="#00160A"/>
<path fill-rule="evenodd" clip-rule="evenodd" d="M1583.44 984.583C1582.1 986.522 1578.32 984.843 1578.86 982.552C1579.42 981.398 1580.67 980.615 1581.96 980.616C1583.43 981.182 1584.16 983.162 1583.4 984.55L1583.44 984.583Z" fill="#00160A"/>
<path fill-rule="evenodd" clip-rule="evenodd" d="M1561.09 989.88C1560.97 992.13 1563.77 993.944 1565.78 992.92C1567.78 991.896 1567.95 988.565 1566.06 987.339C1564.17 986.114 1561.2 987.631 1561.09 989.88Z" fill="#00160A"/>
<path fill-rule="evenodd" clip-rule="evenodd" d="M1618.13 988.478C1620.04 989.91 1623.3 988.517 1623.58 986.144C1623.86 983.771 1621.03 981.649 1618.83 982.59C1616.64 983.53 1616.22 987.045 1618.13 988.478Z" fill="#00160A"/>
<path fill-rule="evenodd" clip-rule="evenodd" d="M1653.64 893.35C1664.88 885.209 1680.45 888.944 1693.73 893.008C1695.81 893.645 1698.41 895.553 1697.21 897.366C1696.49 898.447 1694.92 898.41 1693.64 898.253C1680.3 896.619 1666.97 894.984 1653.64 893.35Z" fill="#00160A"/>
<path fill-rule="evenodd" clip-rule="evenodd" d="M1603.34 988.481C1607.38 1001.06 1621.93 1009.22 1634.77 1006.11C1640.42 1004.74 1646.87 1001.67 1651.5 1005.18C1643.38 1011.98 1631.95 1014.62 1621.67 1012.08C1611.38 1009.54 1602.5 1001.87 1598.48 992.071C1590.52 1003.17 1577.89 1010.81 1564.36 1012.7C1562.34 1012.99 1560.05 1013.07 1558.52 1011.72C1556.99 1010.36 1557.39 1007.14 1559.43 1007C1570.6 1006.22 1581.43 1001.32 1589.38 993.44C1593.7 989.163 1597.25 982.288 1593.79 977.287C1590.58 972.627 1587.99 967.534 1586.13 962.188C1585.43 960.206 1584.9 957.826 1586.17 956.158C1587.11 954.924 1588.75 954.5 1590.26 954.153C1594.86 953.1 1599.61 952.042 1604.24 952.919C1608.87 953.797 1613.38 957.146 1614.07 961.809C1615.51 971.662 1600.28 979.002 1603.34 988.481Z" fill="#00160A"/>
<path fill-rule="evenodd" clip-rule="evenodd" d="M686.733 954.516C687.731 951.614 693.136 952.618 693.024 955.685C691.893 958.567 686.532 957.507 686.583 954.411L686.733 954.516Z" fill="#00160A"/>
<path fill-rule="evenodd" clip-rule="evenodd" d="M637.958 967.862C637.343 964.767 631.431 965.942 632.046 969.038C632.661 972.133 638.573 970.958 637.958 967.862Z" fill="#00160A"/>
<path fill-rule="evenodd" clip-rule="evenodd" d="M646.343 973.106C647.759 971.36 650.255 970.575 652.416 971.196C653.123 972.076 653.346 973.322 652.988 974.393C651.385 975.045 649.783 975.698 648.181 976.35C647.501 975.326 646.822 974.302 646.143 973.278L646.343 973.106Z" fill="#00160A"/>
<path fill-rule="evenodd" clip-rule="evenodd" d="M647.058 965.766C645.982 965.017 645.259 963.782 645.131 962.476C646.3 960.049 650.438 960.021 651.64 962.432C650.535 964.022 648.898 965.235 647.055 965.831L647.058 965.766Z" fill="#00160A"/>
<path fill-rule="evenodd" clip-rule="evenodd" d="M609.382 973.763C607.78 975.852 604.165 973.139 604.598 970.543C605.03 967.946 607.459 966.257 609.517 964.615C613.906 961.112 617.444 956.543 622.223 953.594C627.002 950.644 633.846 949.793 637.831 953.749C626.617 957.337 616.548 964.42 609.382 973.763Z" fill="#00160A"/>
<path fill-rule="evenodd" clip-rule="evenodd" d="M595.675 945.376C602.175 939.294 610.256 934.916 618.902 932.795C620.747 932.343 622.765 932.006 624.491 932.799C626.218 933.593 627.311 935.968 626.152 937.474C615.152 939.428 604.799 944.878 596.963 952.842C595.537 954.29 592.835 952.542 592.763 950.512C592.69 948.481 594.191 946.765 595.675 945.376Z" fill="#00160A"/>
<path fill-rule="evenodd" clip-rule="evenodd" d="M677.966 956.494C677.768 955.002 680.324 955.816 681.086 957.113C680.048 958.662 679.009 960.212 677.97 961.761C675.812 961.065 675.712 957.366 677.83 956.555L677.966 956.494Z" fill="#00160A"/>
<path fill-rule="evenodd" clip-rule="evenodd" d="M742.253 948.384C732.848 945.488 723.444 942.592 714.039 939.696C711.839 939.019 709.431 938.178 708.314 936.165C721.297 933.227 735.573 936.705 745.751 945.284C746.179 945.645 746.622 946.049 746.762 946.591C747.259 948.515 744.152 948.969 742.253 948.384Z" fill="#00160A"/>
<path fill-rule="evenodd" clip-rule="evenodd" d="M679.963 965.295C681.009 964.04 683.234 964.074 684.241 965.36C685.249 966.647 684.749 968.815 683.28 969.53C681.093 969.314 679.216 967.346 679.104 965.151L679.963 965.295Z" fill="#00160A"/>
<path fill-rule="evenodd" clip-rule="evenodd" d="M735.612 968.776C725.858 965.352 716.103 961.928 706.349 958.504C705.551 958.224 704.707 957.911 704.195 957.238C703.073 955.762 704.372 953.464 706.143 952.912C707.913 952.36 709.813 952.978 711.564 953.592C716.819 955.435 722.075 957.277 727.331 959.12C731.831 960.698 737.373 964.345 735.612 968.776V968.776Z" fill="#00160A"/>
<path fill-rule="evenodd" clip-rule="evenodd" d="M2013.09 545.211C2048.5 559.553 2072.59 594.079 2083.77 630.618C2094.94 667.157 2095.05 706.03 2095.07 744.239C2095.18 1027.33 2095.3 1310.43 2095.41 1593.53C2095.41 1634.94 2095.09 1677.98 2077.13 1715.3C2060.65 1749.51 2029.48 1776.33 1993.19 1787.5C1966.85 1795.61 1938.81 1795.67 1911.26 1795.67C1389.52 1795.57 867.789 1795.48 346.054 1795.39C320.061 1795.39 292.268 1794.85 270.872 1780.09C236.609 1756.46 233.22 1708.03 233.207 1666.41C233.105 1342.95 233.003 1019.5 232.9 696.048C232.9 672.007 232.985 647.377 241.292 624.816C255.631 585.876 292.879 558.959 332.477 546.55C372.074 534.142 414.331 534.077 455.827 534.117C549.725 534.224 643.624 534.327 737.522 534.429C1138.34 534.866 1539.17 535.304 1939.99 535.741C1964.72 535.768 1990.16 535.928 2013.09 545.211V545.211ZM1140.18 1788.87C1139.96 1583.05 1139.74 1377.22 1139.51 1171.4C843.475 1171.52 547.436 1171.64 251.397 1171.76C248.849 1171.76 245.997 1171.89 244.24 1173.73C242.591 1175.46 242.492 1178.11 242.491 1180.5C242.358 1353.22 242.225 1525.93 242.092 1698.65C242.092 1707.64 242.092 1716.72 243.991 1725.52C250.29 1754.61 276.816 1775.88 305.247 1784.7C333.677 1793.53 364.118 1792.19 393.865 1791.08C509.045 1786.78 624.343 1787.16 739.602 1787.54C873.129 1787.98 1006.66 1788.43 1140.18 1788.87ZM1147.79 1172.3C1147.96 1377.58 1148.13 1582.86 1148.3 1788.14C1407.79 1787.89 1667.27 1787.65 1926.76 1787.41C1946.27 1787.39 1965.99 1787.35 1984.97 1782.81C2029.62 1772.13 2066.55 1735.53 2079.7 1691.54C2087.47 1665.55 2087.47 1637.97 2087.41 1610.85C2087.08 1464.3 2086.74 1317.76 2086.41 1171.22C1773.53 1171.58 1460.66 1171.94 1147.79 1172.3ZM1147.69 544.934C1147.96 750.748 1148.23 956.563 1148.5 1162.38C1458.52 1162.4 1768.54 1162.42 2078.57 1162.44C2081.15 1162.44 2084.11 1162.26 2085.69 1160.22C2086.82 1158.75 2086.87 1156.75 2086.87 1154.9C2086.91 1004.88 2086.96 854.858 2087 704.838C2087 682.692 2086.98 660.263 2081.43 638.825C2066.25 580.242 2005.96 536.866 1945.59 541.093C1900.82 544.228 1855.91 544.272 1811.03 544.314C1589.92 544.52 1368.8 544.727 1147.69 544.934ZM1140.17 1161.58C1139.92 955.792 1139.67 750.003 1139.43 544.213C883.816 544.121 628.203 544.03 372.59 543.939C312.306 543.918 255.438 591.366 244.661 650.679C241.851 666.144 241.868 681.965 241.889 697.683C242.149 852.355 242.404 1007.03 242.659 1161.7C541.826 1162.94 840.999 1162.9 1140.17 1161.58Z" fill="#00160A"/>
<path fill-rule="evenodd" clip-rule="evenodd" d="M670.746 956.51C668.928 961.269 671.24 966.779 674.896 970.326C680.226 975.497 688.438 977.48 695.54 975.311C700.652 973.749 706.844 970.468 710.628 974.244C699.357 985.597 677.958 983.997 668.501 971.094C665.546 978.798 658.781 984.932 650.826 987.123C642.871 989.313 633.92 987.506 627.438 982.401C632.202 978.452 639.265 981.533 645.453 981.569C651.995 981.606 658.394 977.602 661.22 971.701C664.047 965.8 663.156 958.304 659.026 953.23C654.814 948.054 651.554 942.107 649.456 935.772C648.97 934.305 648.546 932.708 649.016 931.235C649.978 928.221 653.849 927.506 657.009 927.348C663.487 927.023 669.972 926.847 676.458 926.821C679.573 926.808 683.351 927.23 684.66 930.058C685.522 931.92 684.9 934.11 684.143 936.018C682.172 940.99 679.336 945.619 675.801 949.633C673.91 951.781 671.768 953.836 670.746 956.51Z" fill="#00160A"/>
<path fill-rule="evenodd" clip-rule="evenodd" d="M726.199 829.874C716.613 828.091 706.514 829.165 697.517 832.923C696.267 833.446 694.824 834.017 693.617 833.4C692.145 832.647 691.992 830.443 692.908 829.065C693.824 827.688 695.431 826.961 696.976 826.368C712.888 820.267 731.452 821.515 746.405 829.689C740.707 833.656 733.025 831.144 726.199 829.874V829.874Z" fill="#00160A"/>
<path fill-rule="evenodd" clip-rule="evenodd" d="M721.504 878.329C720.695 879.912 719.722 881.54 718.138 882.345C715.788 883.54 712.738 882.423 711.135 880.33C709.532 878.237 709.144 875.436 709.34 872.807C709.738 867.438 714.386 861.411 719.454 863.23C724.887 865.181 724.13 873.188 721.504 878.329V878.329Z" fill="#00160A"/>
<path fill-rule="evenodd" clip-rule="evenodd" d="M628.449 869.148C629.02 873.713 627.002 878.825 622.828 880.759C618.654 882.692 612.715 880.073 612.269 875.495C612.114 873.902 612.578 872.319 613.065 870.795C614.487 866.347 617.405 861.118 622.058 861.515C625.638 861.821 628.002 865.583 628.449 869.148Z" fill="#00160A"/>
<path fill-rule="evenodd" clip-rule="evenodd" d="M587.794 836.437C587.05 834.051 589.939 832.229 592.325 831.484C606.379 827.091 621.571 826.395 635.969 829.483C638.086 829.937 640.417 830.64 641.474 832.53C642.531 834.42 640.914 837.515 638.857 836.839C624.715 832.191 609.012 832.452 595.032 837.565C592.448 838.51 588.614 839.064 587.794 836.437V836.437Z" fill="#00160A"/>
<path fill-rule="evenodd" clip-rule="evenodd" d="M795.293 716.302C793.911 738.226 792.529 760.215 793.825 782.143C794.834 799.213 797.463 816.185 797.703 833.282C798.398 882.697 779.025 930.559 752.672 972.366C815.941 1014.92 863.638 1080.11 885.048 1153.29C875.927 1147.6 872.004 1136.57 868.175 1126.53C847.027 1071.05 809.813 1021.82 762.218 986.335C755.392 981.246 743.791 977.399 740.016 985.031C731.488 1002.27 718.884 1017.48 703.525 1029.06C697.953 1033.26 691.718 1037.41 687.363 1042.68C687.402 1043.11 687.419 1043.55 687.419 1043.99C687.419 1052.9 680.19 1060.13 671.271 1060.13C665.209 1060.13 659.927 1056.79 657.166 1051.85C616.965 1034.18 584.254 999.867 568.868 958.694C539.474 979.078 522.527 1013.77 516.029 1048.94C509.531 1084.11 512.293 1120.26 515.078 1155.92C512.143 1157.91 509.397 1153.1 509.062 1149.58C505.67 1113.87 503.766 1077.52 511.174 1042.43C518.582 1007.33 536.286 973.225 565.533 952.466C538.39 893.37 548.946 820.872 515.833 764.903C513.866 761.579 512.211 756.395 515.653 754.646C516.93 753.997 518.455 754.198 519.867 754.437C542.956 758.354 564.957 768.509 582.917 783.538C587.55 787.415 594.483 784.585 599.896 781.904C641.502 761.3 691.186 757.608 735.379 771.838C746.483 750.504 762.839 731.928 782.596 718.212C786.408 715.566 791.863 713.177 795.293 716.302ZM652.572 1004.66C666.812 1005.91 681.32 1007.14 695.275 1004.04C727.195 996.959 750.096 968.716 764.72 939.472C781.466 905.985 790.848 868.839 792.011 831.416C781.686 839.72 771.362 848.024 761.037 856.328C754.923 861.246 748.244 867.3 748.361 875.146C748.528 886.303 741.616 897.255 731.473 901.904C721.33 906.554 708.521 904.642 700.178 897.234C690.761 888.872 685.413 873.735 672.869 872.632C658.075 871.332 651.027 890.3 639.124 899.179C623.955 910.494 599.473 901.999 591.9 884.655C590.46 881.357 590.975 875.501 587.675 873.493C577.153 867.087 565.533 866.853 551.822 867.309C554.265 897.186 561.498 926.665 573.159 954.28C578.326 966.515 584.623 978.733 594.765 987.309C610.388 1000.52 632.19 1002.87 652.572 1004.66ZM738.287 778.612C733.686 787.394 725.965 798.385 716.706 794.84C722.652 789.744 727.79 783.706 731.868 777.021C685.795 763.888 634.755 769.125 592.309 791.342C595.962 795.764 600.455 799.489 605.478 802.259C600.164 807.32 591.965 801.118 586.938 795.772C569.827 777.579 546.435 765.408 521.716 761.835C531.86 778.112 541.238 810.356 549.85 858.569C563.806 861.725 573.186 863.354 577.991 863.456C583.521 863.574 590.258 863 592.675 858.025C599.061 844.882 615.054 837.216 629.3 840.469C643.545 843.722 654.626 857.57 654.674 872.182C663.914 866.13 676.275 865.169 686.338 869.721C687.387 857.286 696.807 845.989 708.852 842.723C720.896 839.457 734.732 844.447 741.92 854.649C745.047 859.086 751.965 855.827 756.113 852.324C764.706 845.065 773.3 837.807 781.893 830.548C786.735 826.458 792.062 821.152 791.047 814.895C786.02 783.91 785.392 752.214 789.188 721.054C767.92 735.769 750.291 755.704 738.287 778.612ZM716.323 1001.7C695.64 1015.75 668.342 1013.3 643.52 1010.3C629.961 1008.66 615.931 1006.86 604.274 999.737C601.878 998.274 598.739 996.601 596.525 998.327C610.422 1015.67 628.416 1029.71 648.62 1038.96C651.622 1040.34 656.049 1041.15 657.472 1038.17C660.745 1031.32 670.676 1028.78 676.836 1033.22C681.848 1036.83 688.776 1033.36 693.728 1029.67C704.849 1021.37 714.998 1011.78 723.905 1001.14C722.602 998.559 718.716 1000.08 716.323 1001.7ZM599.035 885.284C605.27 895.808 619.495 900.768 630.922 896.402C642.349 892.036 649.642 878.854 647.27 866.853C644.899 854.853 633.139 845.436 620.911 845.745C608.682 846.054 597.413 856.052 595.65 868.157C594.795 874.028 596.011 880.18 599.035 885.284ZM694.026 867.087C692.557 875.78 695.962 884.945 702.129 891.245C706.66 895.873 712.905 899.142 719.377 898.903C730.947 898.474 739.363 887.411 742.933 876.397C743.864 873.524 744.595 870.47 744.029 867.504C743.295 863.653 740.499 860.543 737.578 857.929C730.248 851.368 720.36 846.396 710.773 848.599C702.181 850.574 695.494 858.394 694.026 867.087Z" fill="#00160A"/>
</svg>
