<svg width="250" height="150" viewBox="0 0 250 150" fill="none" xmlns="http://www.w3.org/2000/svg">
<path fill-rule="evenodd" clip-rule="evenodd" d="M135.337 53L122 86L108.663 53H99V97H107V69L119 97H125L137 69V97H145V53H135.337Z" fill="white"/>
<path fill-rule="evenodd" clip-rule="evenodd" d="M85.3368 53L72 86L58.6632 53H51L69 97H75L93 53H85.3368Z" fill="white"/>
<path fill-rule="evenodd" clip-rule="evenodd" d="M187 75C187 67.268 180.732 61 173 61C165.268 61 159 67.268 159 75C159 82.732 165.268 89 173 89C180.732 89 187 82.732 187 75ZM158.096 91.1822C153.733 87.162 151 81.4002 151 75C151 62.8497 160.85 53 173 53C185.15 53 195 62.8497 195 75C195 87.1503 185.15 97 173 97C169.752 97 166.669 96.2962 163.894 95.0328L156.536 97.0045L158.096 91.1822ZM164 77C164 81.4183 168.029 85 173 85C177.971 85 182 81.4183 182 77H180C180 80.0988 177.094 83 173 83C168.906 83 166 80.0988 166 77H164ZM170 72C170 73.1046 169.105 74 168 74C166.895 74 166 73.1046 166 72C166 70.8954 166.895 70 168 70C169.105 70 170 70.8954 170 72ZM178 74C179.105 74 180 73.1046 180 72C180 70.8954 179.105 70 178 70C176.895 70 176 70.8954 176 72C176 73.1046 176.895 74 178 74Z" fill="white"/>
</svg>
