<svg width="1508" height="905" viewBox="0 0 1508 905" fill="none" xmlns="http://www.w3.org/2000/svg">
<path d="M735.904 518.866L816.352 319.767H874.64V585.233H826.384V416.3L754 585.233H717.808L645.424 416.3V585.233H597.168V319.767H655.457L735.904 518.866Z" fill="#4A7AFF"/>
<path d="M434.304 518.866L514.751 319.767H560.976L452.4 585.233H416.208L307.632 319.767H353.857L434.304 518.866Z" fill="#4A7AFF"/>
<path d="M1045.25 319.777C1117.75 320.696 1176.24 379.766 1176.24 452.5L1176.23 454.216C1175.31 526.732 1116.25 585.233 1043.54 585.233L1041.82 585.223C1022.86 584.983 1004.86 580.763 988.609 573.363L944.223 585.26L953.633 550.129C927.709 526.234 911.323 492.143 910.843 454.216L910.832 452.5C910.832 379.193 970.246 319.767 1043.54 319.767L1045.25 319.777ZM1043.54 359.767C992.345 359.767 950.832 401.277 950.832 452.5C950.832 503.724 992.345 545.233 1043.54 545.233C1094.73 545.233 1136.24 503.724 1136.24 452.5C1136.24 401.277 1094.73 359.767 1043.54 359.767ZM999.248 464.566C999.248 484.628 1017.94 502.833 1043.54 502.833C1068.73 502.833 1087.24 485.192 1087.81 465.505L1087.82 464.566H1097.82L1097.82 465.19C1097.44 491.56 1073.28 512.833 1043.54 512.833L1042.83 512.829C1013.41 512.498 989.626 491.352 989.253 465.19L989.248 464.566H999.248ZM1013.38 422.333C1020.04 422.333 1025.44 427.736 1025.44 434.4C1025.44 441.064 1020.04 446.467 1013.38 446.467C1006.71 446.467 1001.31 441.064 1001.31 434.4C1001.31 427.736 1006.71 422.333 1013.38 422.333ZM1073.7 422.333C1080.36 422.333 1085.76 427.736 1085.76 434.4C1085.76 441.064 1080.36 446.467 1073.7 446.467C1067.03 446.467 1061.63 441.064 1061.63 434.4C1061.63 427.736 1067.03 422.333 1073.7 422.333Z" fill="#4A7AFF"/>
</svg>
