<svg width="1024" height="400" viewBox="0 0 1024 400" fill="none" xmlns="http://www.w3.org/2000/svg">
<path d="M506.272 266.1L586.72 67H645.008V332.467H596.752V163.533L524.368 332.467H488.176L415.792 163.533V332.467H367.536V67H425.825L506.272 266.1Z" fill="#4A7AFF"/>
<path d="M204.672 266.1L285.119 67H331.344L222.768 332.467H186.576L78 67H124.225L204.672 266.1Z" fill="#4A7AFF"/>
<path d="M815.619 67.0107C888.119 67.9291 946.608 126.999 946.608 199.733L946.598 201.449C945.679 273.965 886.622 332.467 813.904 332.467L812.189 332.456C793.228 332.216 775.226 327.996 758.977 320.597L714.591 332.493L724.001 297.362C698.077 273.467 681.691 239.376 681.211 201.449L681.2 199.733C681.2 126.427 740.614 67 813.904 67L815.619 67.0107ZM813.904 107C762.713 107 721.2 148.51 721.2 199.733C721.2 250.957 762.714 292.467 813.904 292.467C865.095 292.467 906.608 250.957 906.608 199.733C906.608 148.51 865.095 107 813.904 107ZM769.616 211.8C769.616 231.861 788.307 250.066 813.904 250.066C839.102 250.066 857.607 232.425 858.179 212.738L858.192 211.8H868.192L868.187 212.424C867.812 238.793 843.652 260.066 813.904 260.066L813.202 260.062C783.777 259.731 759.994 238.585 759.621 212.424L759.616 211.8H769.616ZM783.744 169.566C790.407 169.566 795.808 174.97 795.808 181.634C795.808 188.298 790.407 193.7 783.744 193.7C777.081 193.7 771.681 188.298 771.681 181.634C771.681 174.97 777.081 169.566 783.744 169.566ZM844.064 169.566C850.727 169.567 856.128 174.97 856.128 181.634C856.128 188.298 850.727 193.7 844.064 193.7C837.402 193.7 832 188.298 832 181.634C832 174.97 837.402 169.566 844.064 169.566Z" fill="#4A7AFF"/>
</svg>
