<svg width="24" height="24" viewBox="0 0 24 24" fill="none" xmlns="http://www.w3.org/2000/svg">
<path d="M3.29292 14.6392C3.59804 14.3341 4.06447 14.2591 4.44985 14.4532C5.45471 14.9593 6.59037 15.2448 7.79559 15.2448C11.9097 15.2448 15.2448 11.9097 15.2448 7.79556C15.2448 6.59034 14.9594 5.45468 14.4532 4.44982C14.2591 4.06444 14.3341 3.59801 14.6393 3.29289C14.9444 2.98777 15.4108 2.91278 15.7962 3.10688C18.8806 4.66039 21 7.85718 21 11.5508C21 16.7694 16.7695 21 11.5508 21C7.85721 21 4.66041 18.8806 3.10691 15.7962C2.91281 15.4108 2.9878 14.9443 3.29292 14.6392ZM6.66962 17.1783C7.97743 18.3136 9.68433 19 11.5508 19C15.6649 19 19 15.6649 19 11.5508C19 9.68429 18.3137 7.9774 17.1783 6.66959C17.2222 7.03894 17.2448 7.4147 17.2448 7.79556C17.2448 13.0142 13.0143 17.2448 7.79559 17.2448C7.41474 17.2448 7.03898 17.2222 6.66962 17.1783Z" fill="#1E1E1E"/>
</svg>
