<svg width="24" height="24" viewBox="0 0 24 24" fill="none" xmlns="http://www.w3.org/2000/svg">
<path d="M12 10C10.4 10 8.85 10.25 7.4 10.72V13.82C7.4 14.21 7.17 14.56 6.84 14.72C5.86 15.21 4.97 15.84 4.18 16.57C4 16.75 3.75 16.85 3.48 16.85C3.2 16.85 2.95 16.74 2.77 16.56L0.29 14.08C0.11 13.91 0 13.66 0 13.38C0 13.1 0.11 12.85 0.29 12.67C3.34 9.78 7.46 8 12 8C16.54 8 20.66 9.78 23.71 12.67C23.89 12.85 24 13.1 24 13.38C24 13.66 23.89 13.91 23.71 14.09L21.23 16.57C21.05 16.75 20.8 16.86 20.52 16.86C20.25 16.86 20 16.75 19.82 16.58C19.03 15.84 18.13 15.22 17.15 14.73C16.82 14.57 16.59 14.23 16.59 13.83V10.73C15.15 10.25 13.6 10 12 10Z" fill="white"/>
</svg>
