<svg width="24" height="24" viewBox="0 0 24 24" fill="none" xmlns="http://www.w3.org/2000/svg">
<path fill-rule="evenodd" clip-rule="evenodd" d="M15 10.6V5C15 3.34 13.66 2 12 2C10.46 2 9.21 3.16 9.04 4.65L15 10.6ZM19 11H17.3C17.3 11.58 17.2 12.13 17.03 12.64L18.3 13.91C18.74 13.03 19 12.04 19 11ZM3 4.27L4.41 2.86L21.16 19.61L19.75 21.02L15.55 16.82C14.77 17.27 13.91 17.59 13 17.72V21H11V17.72C7.72 17.23 5 14.41 5 11H6.7C6.7 14 9.24 16.1 12 16.1C12.81 16.1 13.6 15.91 14.31 15.58L12.65 13.92C12.44 13.97 12.23 14 12 14C10.34 14 9 12.66 9 11V10.27L3 4.27Z" fill="#FF4D4D"/>
</svg>
